<svg height="512" viewBox="0 0 60 60" width="512" xmlns="http://www.w3.org/2000/svg"><g id="Page-1" fill="none" fill-rule="evenodd"><g id="040---Trash" fill="rgb(0,0,0)" fill-rule="nonzero" transform="translate(-1)"><path id="Shape" d="m57.9 48.768c1.6904533-2.653778 1.4025334-6.1093585-.7037886-8.4467882-2.1063219-2.3374297-5.5133927-2.9822579-8.3282114-1.5762118-.3178521-1.4477039-1.1603064-2.7265246-2.365-3.59l.975-2.15c1.0682197.6456071 2.0558283 1.4160224 2.942 2.295.3854435.3820714 1.0052829.3869579 1.3967021.0110108.3914193-.3759471.4115219-.9954796.0452979-1.3960108-1.0590504-1.0646282-2.2536468-1.9852037-3.553-2.738l.833-1.836c1.7092504.9103378 3.3252888 1.9857988 4.825 3.211.272415.2322226.6480262.3014735.9853444.1816665s.5850968-.4104703.65-.7625c.0649032-.3520296-.0629294-.7119439-.3353444-.9441665-1.6397694-1.3477776-3.4133717-2.5239242-5.293-3.51l.828-1.825c2.0237767 1.0448241 3.9509813 2.2669375 5.759 3.652.4340958.3421404 1.0633596.2675958 1.4055-.1665s.2675958-1.0633596-.1665-1.4055c-1.9336178-1.4900129-4.0007319-2.7982367-6.175-3.908l.828-1.827c2.3482973 1.1394345 4.5810047 2.503104 6.667 4.072.1767365.1399376.3955708.2160539.621.216.1123876.0002771.2239954-.0186624.33-.056.3232723-.1129684.5662589-.3834986.644-.717 1.22-5.245-1.752-11.56-5.04-13.051s-10 .434-13.14 4.807c-.1999045.2783196-.2433794.639616-.1152059.9574133s.4101445.5478354.7472059.6095867c2.557245.5354615 5.0565898 1.3174486 7.463 2.335l-.83 1.827c-2.2699575-.9064742-4.6189887-1.6007724-7.017-2.074-.5434482-.0991351-1.0643649.2610518-1.1635.8045s.2610518 1.0643649.8045 1.1635c2.2359586.4472188 4.4276238 1.0927711 6.549 1.929l-.828 1.825c-1.9823285-.7668284-4.0385779-1.3268012-6.136-1.671-.3570659-.0603654-.7188672.0770285-.9458589.3591895s-.2837005.6649943-.1482543 1.000843c.1354463.3358488.4418808.572228.8011132.6179675 1.9120477.3201133 3.7878146.8282452 5.6 1.517l-.833 1.836c-1.4249378-.4832432-2.9073877-.7764381-4.409-.872h-.046c-.5522847-.0121503-1.0098497.4257153-1.022.978-.0121502.5522847.4257153 1.0098497.978 1.022 1.2468906.0834561 2.4789684.3185213 3.669.7l-.949 2.094c-1.0203467-.3258134-2.11205-.3563214-3.149-.088-.6799723-1.3379653-2.0541629-2.180261-3.555-2.179.0054963-3.0138811-1.9222055-5.6916198-4.782087-6.6427178-2.8598814-.951098-6.0073208.0388238-7.807913 2.4557178-.9349339-1.3742516-2.6232346-2.0258345-4.239-1.636l-.972.236-.946-3.886c-.2613539-1.0729991-1.3429341-1.7310798-2.416-1.47l-3.887.943c-1.0721347.2632891-1.7297101 1.3437512-1.471 2.417l.947 3.886-.971.236c-1.0307771.2510052-1.91961912.9012162-2.47098001 1.807586-.55136088.9063698-.72007317 1.9946486-.46901999 3.025414l1.13 4.643c-2.49012882.123858-4.72603745 1.5639391-5.86872609 3.779869-1.14268864 2.2159298-1.01935319 4.8726024.32372609 6.973131-2.3960172 1.3187723-3.59375601 4.0935928-2.91003348 6.7417209s3.07507045 4.4962791 5.81003348 4.4902791h48c2.734963.006 5.126311-1.842151 5.8100335-4.4902791s-.5140163-5.4229486-2.9100335-6.7417209zm-3.052-34.446c2.033.922 4.358 5.141 4.136 9.216-4.1855584-2.8996566-8.8606829-5.0190464-13.8-6.256 2.924-2.853 7.634-3.882 9.664-2.96zm-40.168 35.93-1.149-4.718c-.0626819-.2588848-.0194892-.532079.12-.759.134642-.223323.3521136-.3843598.605-.448h.012l11.66-2.839h.016c.5338732-.1255066 1.0692209.2023938 1.2.735l.977 4.024c-2.6028659.3260136-4.9763481 1.6531837-6.617 3.7-2.2758078-.2783328-4.5820973-.1752527-6.824.305zm11.509-11.917c.1300007.5294953-.1907867 1.0648846-.719 1.2h-.016l-11.66 2.84h-.011c-.5341822.1254451-1.0696713-.2029883-1.2-.736-.1299672-.5358918.1983951-1.0758555.734-1.207l11.664-2.832c.5365329-.1305399 1.077323.1985004 1.208.735zm-12.766-14.388 3.887-.947.946 3.887-3.886.946zm-2.731 7.443c.2751322-.4531568.7202595-.7772786 1.236-.9l1.943-.473 2.915-.71 4.858-1.183c.1548746-.0375456.3136397-.0566779.473-.057.9226481-.00034 1.7257938.630526 1.944 1.527l1.182 4.859c.1299672.5358918-.1983951 1.0758555-.734 1.207l-11.66 2.84c-.5365329.1305399-1.077323-.1985004-1.208-.735l-1.183-4.865c-.12707-.5143729-.0427929-1.0582125.234-1.51zm44.308 26.61h-48c-2.00676436.0068119-3.70601144-1.4786092-3.96752882-3.4682721-.26151739-1.9896628.99616422-3.8637369 2.93652882-4.3757279.3433434-.0920743.61199882-.3594962.70565235-.7024122s-.00177463-.7097724-.25065235-.9635878c-1.40288011-1.4392524-1.80761748-3.5786138-1.02744481-5.4308693.78017266-1.8522556 2.59358988-3.0573271 4.60344481-3.0591307.2954783.0028493.5900622.0329772.88.09-.6757478 1.3322823-.2493231 2.9593951.993 3.789-.3561953.649253-.4577998 1.4078995-.285 2.128l1.178 4.837c-.9069388.3257167-1.7454926.8170489-2.473 1.449-.2813286.2870058-.36350498.7145455-.208621 1.0853946.1548841.3708491.5167313.6129438.918621.6146054.2606677.0012028.5116256-.0988218.7-.279.028-.027 2.857-2.638 10.177-1.723.4162284.0477275.8190133-.1651844 1.014-.536.07-.141 1.881-3.455 8.106-3.455.5522847 0 1-.4477153 1-1s-.4477153-1-1-1c-.3 0-.592.011-.878.025l-1.04-4.282c-.1774058-.7181767-.6163592-1.344336-1.231-1.756.7430171-1.3456988.3293798-3.0363489-.951-3.887.3568195-.6494104.4584495-1.4086048.285-2.129l-.89-3.654c.8217751-2.2851273 3.1666483-3.6493913 5.559336-3.2344615 2.3926877.4149297 4.1412879 2.4890666 4.145664 4.9174615.0042869.3360293-.0292575.6714737-.1 1-.0831334.3625798.0418618.7413393.3244742.9832185s.6761287.3068979 1.0215258.1687815c.555226-.2163636 1.1776369-.1766697 1.7008797.1084726.5232428.2851422.8939787.7866658 1.0131203 1.3705274.0542562.3024728.2445699.5632041.5161108.7070759.2715408.1438717.5941526.1549061.8748892.0299241.5177499-.2370318 1.0795987-.3624171 1.649-.368.2947857.0010736.5885565.0346091.876.1l-1.941 4.278c-.9620111-.2305387-1.9459684-.357263-2.935-.378-.5522847 0-1 .4477153-1 1s.4477153 1 1 1c1 0 3.893.307 5.293 1.707.3923789.3789722 1.0160848.3735524 1.4018186-.0121814s.3911536-1.0094397.0121814-1.4018186c-.5444601-.5268682-1.1774632-.9537222-1.87-1.261l1.816-4c.8525089.7513827 1.3427708 1.8316332 1.347 2.968-.0027789.0841271-.0111306.1679775-.025.251l-.03.242c-.0401052.4122709.1781109.8065927.5487308.9915699.3706199.1849773.8169174.1223158 1.1222692-.1575699 2.0012276-1.7588325 5.0300821-1.6395106 6.8867437.2713036 1.8566617 1.9108143 1.8888805 4.9418471.0732563 6.8916964-.2488777.2538154-.3443059.6206718-.2506524.9635878.0936536.342916.362309.6103379.7056524.7024122 1.9403646.511991 3.1980462 2.3860651 2.9365288 4.3757279-.2615174 1.9896629-1.9607644 3.475084-3.9675288 3.4682721z"/><circle id="Oval" cx="30" cy="53" r="1"/><circle id="Oval" cx="18" cy="55" r="1"/><circle id="Oval" cx="31" cy="32" r="1"/><circle id="Oval" cx="34" cy="40" r="1"/><circle id="Oval" cx="46" cy="54" r="1"/><circle id="Oval" cx="50" cy="47" r="1"/><path id="Shape" d="m53.608 17.054c.2271963-.5033653.0033352-1.0956036-.5000177-1.3228275s-1.0956035-.0033952-1.3228549.4999452c-.2272515.5033404-.0034553 1.0956032.4998726 1.3228823.2417419.1091592.5169486.1178047.7650654.0240341.2481169-.0937705.4488151-.2822742.5579346-.5240341z"/><path id="Shape" d="m38 46c-1.6568542 0-3 1.3431458-3 3s1.3431458 3 3 3 3-1.3431458 3-3-1.3431458-3-3-3zm0 4c-.5522847 0-1-.4477153-1-1s.4477153-1 1-1 1 .4477153 1 1-.4477153 1-1 1z"/><path id="Shape" d="m5 6c0 1.65685425 1.34314575 3 3 3h2c1.5027639.00541296 2.7763854-1.10470653 2.9762085-2.59413577s-.7361583-2.89599095-2.1872085-3.28686423l1.043-1.564c.1982824-.29724497.2229246-.67769306.0646441-.99803314-.1582805-.32034009-.4754371-.5319049-.832-.55500001s-.6983617.14578817-.8966441.44303315l-1.168 1.755-1.168-1.755c-.30651804-.45950091-.92749909-.58351804-1.387-.277s-.58351804.92749909-.277 1.387l1.043 1.564c-1.30057359.35451742-2.20498077 1.53298738-2.211 2.881zm3-1h2c.5522847 0 1 .44771525 1 1s-.4477153 1-1 1h-2c-.55228475 0-1-.44771525-1-1s.44771525-1 1-1z"/><path id="Shape" d="m24 17c0 1.6568542 1.3431458 3 3 3h2c1.5027639.005413 2.7763854-1.1047065 2.9762085-2.5941358.1998231-1.4894292-.7361583-2.8959909-2.1872085-3.2868642l1.043-1.564c.1982824-.297245.2229246-.6776931.0646441-.9980331-.1582805-.3203401-.4754371-.5319049-.832-.555s-.6983617.1457881-.8966441.4430331l-1.168 1.755-1.168-1.752c-.306518-.4595009-.9274991-.583518-1.387-.277s-.583518.9274991-.277 1.387l1.043 1.564c-1.2995052.354219-2.203637 1.5311033-2.211 2.878zm3-1h2c.5522847 0 1 .4477153 1 1s-.4477153 1-1 1h-2c-.5522847 0-1-.4477153-1-1s.4477153-1 1-1z"/><path id="Shape" d="m42 6c0 1.65685425 1.3431458 3 3 3h2c1.5027639.00541296 2.7763854-1.10470653 2.9762085-2.59413577s-.7361583-2.89599095-2.1872085-3.28686423l1.043-1.564c.1982824-.29724497.2229246-.67769305.0646441-.99803314-.1582805-.32034008-.4754371-.53190488-.832-.555-.3565629-.02309511-.6983617.14578817-.8966441.44303314l-1.168 1.755-1.168-1.755c-.306518-.45950088-.9274991-.58351798-1.387-.27699996-.4595009.30651803-.583518.92749905-.277 1.38699996l1.043 1.564c-1.3005736.35451742-2.2049808 1.53298738-2.211 2.881zm3-1h2c.5522847 0 1 .44771525 1 1s-.4477153 1-1 1h-2c-.5522847 0-1-.44771525-1-1s.4477153-1 1-1z"/></g></g></svg>