<svg height="480pt" viewBox="0 0 480 480" width="480pt" xmlns="http://www.w3.org/2000/svg"><path d="m152 288c53.019531 0 96-42.980469 96-96s-42.980469-96-96-96-96 42.980469-96 96c.058594 52.996094 43.003906 95.941406 96 96zm-32-22.726562v-33.273438c0-13.253906 10.746094-24 24-24h16c13.253906 0 24 10.746094 24 24v33.273438c-20.390625 8.96875-43.609375 8.96875-64 0zm48-89.273438c0 8.835938-7.164062 16-16 16s-16-7.164062-16-16v-16c0-8.835938 7.164062-16 16-16s16 7.164062 16 16zm-16-64c34.421875-.046875 65.003906 21.957031 75.898438 54.605469 10.894531 32.652343-.347657 68.609375-27.898438 89.242187v-23.847656c-.050781-15.503906-9.058594-29.582031-23.113281-36.128906 4.570312-5.617188 7.078125-12.628906 7.113281-19.871094v-16c0-17.671875-14.328125-32-32-32s-32 14.328125-32 32v16c.035156 7.242188 2.542969 14.253906 7.113281 19.871094-14.054687 6.546875-23.0625 20.625-23.113281 36.128906v23.847656c-27.550781-20.632812-38.792969-56.589844-27.898438-89.242187 10.894532-32.648438 41.476563-54.652344 75.898438-54.605469zm0 0"/><path d="m280 120h32v16h-32zm0 0"/><path d="m328 120h96v16h-96zm0 0"/><path d="m280 152h16v16h-16zm0 0"/><path d="m312 152h16v16h-16zm0 0"/><path d="m344 152h16v16h-16zm0 0"/><path d="m376 152h16v16h-16zm0 0"/><path d="m408 152h16v16h-16zm0 0"/><path d="m280 184h80v16h-80zm0 0"/><path d="m376 184h48v16h-48zm0 0"/><path d="m280 216h48v16h-48zm0 0"/><path d="m344 216h32v16h-32zm0 0"/><path d="m392 216h32v16h-32zm0 0"/><path d="m280 248h64v16h-64zm0 0"/><path d="m360 248h32v16h-32zm0 0"/><path d="m408 248h16v16h-16zm0 0"/><path d="m440 0h-400c-22.082031.0273438-39.9726562 17.917969-40 40v304c.0273438 22.082031 17.917969 39.972656 40 40h134.9375l-6 48h-16.9375c-13.253906 0-24 10.746094-24 24s10.746094 24 24 24h176c13.253906 0 24-10.746094 24-24s-10.746094-24-24-24h-16.9375l-6-48h134.9375c22.082031-.027344 39.972656-17.917969 40-40v-304c-.027344-22.082031-17.917969-39.9726562-40-40zm-400 16h400c13.253906 0 24 10.746094 24 24v24h-448v-24c0-13.253906 10.746094-24 24-24zm424 64v224h-448v-224zm-128 376c0 4.417969-3.582031 8-8 8h-176c-4.417969 0-8-3.582031-8-8s3.582031-8 8-8h176c4.417969 0 8 3.582031 8 8zm-41.0625-24h-109.875l6-48h97.875zm145.0625-64h-400c-13.253906 0-24-10.746094-24-24v-24h448v24c0 13.253906-10.746094 24-24 24zm0 0"/><path d="m416 336h16v16h-16zm0 0"/><path d="m48 32h16v16h-16zm0 0"/><path d="m80 32h16v16h-16zm0 0"/><path d="m112 32h16v16h-16zm0 0"/></svg>