<svg height="423pt" viewBox="-49 0 423 423" width="423pt" xmlns="http://www.w3.org/2000/svg"><path d="m325.898438 103.898438v90.203124c-.007813 71.101563-34.488282 137.785157-92.5 178.898438l-70.5 50-70.5-50c-57.984376-41.121094-92.429688-107.8125-92.398438-178.898438v-90.203124l163-103.898438zm0 0" fill="#00acea"/><path d="m144.101562 258.898438c-2.707031 0-5.296874-1.078126-7.203124-3l-41.5-42.597657c-3.835938-3.949219-3.746094-10.261719.203124-14.101562 3.949219-3.835938 10.261719-3.75 14.097657.199219l34.601562 35.601562 72.097657-68.101562c4.003906-3.78125 10.320312-3.601563 14.101562.402343 3.78125 4.003907 3.605469 10.316407-.398438 14.097657l-79.101562 74.800781c-1.878906 1.734375-4.34375 2.699219-6.898438 2.699219zm0 0" fill="#00efd1"/></svg>